<svg width="998" height="656" viewBox="0 0 998 656" fill="none" xmlns="http://www.w3.org/2000/svg">
<path d="M240.753 559.152C240.753 527.335 216.618 501.541 186.846 501.541H176.681C162.385 501.541 148.672 495.472 138.563 484.668L111.614 455.868C101.504 445.064 87.7931 438.994 73.4954 438.994C48.9209 438.994 29 417.705 29 391.444V383.598C29 353.004 52.2072 328.203 80.8358 328.203H123.735C133.875 328.203 142.096 319.417 142.096 308.58C142.096 297.742 133.875 288.957 123.735 288.957H100.568C85.9307 288.957 74.0644 276.276 74.0644 260.633C74.0644 244.991 85.9307 232.309 100.568 232.309H278.418C290.923 232.309 301.062 221.476 301.062 208.11C301.062 194.745 290.923 183.911 278.418 183.911H256.327C231.105 183.911 210.658 162.061 210.658 135.105C210.658 108.151 231.105 86.2985 256.327 86.2985H318.6C347.112 86.2985 374.456 74.1959 394.617 52.6493C414.778 31.1043 442.122 19 470.633 19H515.246H629.467C653.464 19 676.478 29.187 693.448 47.3208C710.415 65.4547 733.429 75.6431 757.428 75.6431H924.109C941.204 75.6431 955.062 90.4527 955.062 108.722C955.062 126.99 941.204 141.8 924.109 141.8H878.91C857.738 141.8 840.575 160.14 840.575 182.766C840.575 205.393 857.738 223.734 878.91 223.734H933.715C960.982 223.734 983.088 247.356 983.088 276.496V276.498C983.088 305.636 960.982 329.26 933.715 329.26H846.874C826.432 329.26 809.862 346.969 809.862 368.815C809.862 390.66 826.432 408.369 846.874 408.369H891.91C916.32 408.369 936.108 429.517 936.108 455.604C936.108 481.69 916.32 502.838 891.91 502.838H828.573C795.499 502.838 763.78 516.879 740.392 541.873H740.391C717.005 566.868 685.286 580.908 652.21 580.908H630.198C613.958 580.908 598.383 587.803 586.9 600.075C575.276 612.495 559.469 619.402 543.033 619.237L294.158 616.76C264.583 616.464 240.753 590.76 240.753 559.152Z" fill="#C8F7EE"/>
<path d="M156.294 486.128V509.36H135.829V486.024L156.294 486.128Z" fill="#19205D"/>
<path d="M370.839 486.128V509.36H313.23V486.024L370.839 486.128Z" fill="#19205D"/>
<path d="M329.016 429.834C320.962 429.834 314.307 454.28 313.231 486.024H344.802C343.726 454.28 337.071 429.834 329.016 429.834Z" fill="#19205D"/>
<path d="M378.436 439.439H331.309V550.688H378.436C385.944 550.688 392.03 525.785 392.03 495.063C392.03 464.342 385.944 439.439 378.436 439.439Z" fill="#19205D"/>
<path d="M344.905 495.064C344.905 525.784 338.818 550.687 331.31 550.687C323.803 550.687 317.716 525.784 317.716 495.064C317.716 464.343 323.803 439.44 331.31 439.44C338.818 439.44 344.905 464.343 344.905 495.064Z" fill="#435277"/>
<path d="M334.454 464.117C333.485 462.468 332.425 461.555 331.31 461.555C326.788 461.555 323.121 476.556 323.121 495.064C323.121 513.569 326.788 528.572 331.31 528.572C332.425 528.572 333.485 527.658 334.454 526.01C331.491 520.965 329.408 509.011 329.408 495.064C329.408 481.116 331.491 469.162 334.454 464.117" fill="#C4D3D8"/>
<path d="M334.454 464.117C331.491 469.162 329.408 481.116 329.408 495.064C329.408 509.011 331.491 520.965 334.454 526.01C337.416 520.965 339.5 509.011 339.5 495.064C339.5 481.116 337.416 469.162 334.454 464.117Z" fill="#96A5B2"/>
<path d="M633.955 439.439H586.829V550.688H633.955C641.464 550.688 647.549 525.785 647.549 495.063C647.549 464.342 641.464 439.439 633.955 439.439Z" fill="#19205D"/>
<path d="M600.423 495.064C600.423 525.784 594.338 550.687 586.829 550.687C579.321 550.687 573.235 525.784 573.235 495.064C573.235 464.343 579.321 439.44 586.829 439.44C594.338 439.44 600.423 464.343 600.423 495.064Z" fill="#435277"/>
<path d="M589.973 464.117C589.004 462.468 587.943 461.555 586.83 461.555C582.307 461.555 578.639 476.556 578.639 495.064C578.639 513.569 582.307 528.572 586.83 528.572C587.943 528.572 589.004 527.658 589.973 526.01C587.011 520.965 584.927 509.011 584.927 495.064C584.927 481.116 587.011 469.162 589.973 464.117" fill="#C4D3D8"/>
<path d="M589.973 464.117C587.011 469.162 584.927 481.116 584.927 495.064C584.927 509.011 587.011 520.965 589.973 526.01C592.936 520.965 595.019 509.011 595.019 495.064C595.019 481.116 592.936 469.162 589.973 464.117Z" fill="#96A5B2"/>
<path d="M151.614 429.834C143.56 429.834 136.905 454.28 135.828 486.024H167.4C166.325 454.28 159.669 429.834 151.614 429.834Z" fill="#19205D"/>
<path d="M695.374 486.024H370.838V142.212H695.374V486.024Z" fill="#2FD4EB"/>
<path d="M384.434 155.615H681.782V472.62H384.434V155.615Z" fill="#19205D"/>
<path d="M198.74 439.439H151.614V550.688H198.74C206.248 550.688 212.335 525.785 212.335 495.063C212.335 464.342 206.248 439.439 198.74 439.439Z" fill="#19205D"/>
<path d="M165.208 495.064C165.208 525.784 159.122 550.687 151.614 550.687C144.106 550.687 138.02 525.784 138.02 495.064C138.02 464.343 144.106 439.44 151.614 439.44C159.122 439.44 165.208 464.343 165.208 495.064Z" fill="#435277"/>
<path d="M154.758 464.117C153.789 462.468 152.728 461.555 151.615 461.555C147.092 461.555 143.424 476.556 143.424 495.064C143.424 513.569 147.092 528.572 151.615 528.572C152.728 528.572 153.789 527.658 154.758 526.01C151.796 520.965 149.712 509.011 149.712 495.064C149.712 481.116 151.796 469.162 154.758 464.117" fill="#C4D3D8"/>
<path d="M154.758 464.117C151.796 469.162 149.712 481.116 149.712 495.064C149.712 509.011 151.796 520.965 154.758 526.01C157.721 520.965 159.803 509.011 159.803 495.064C159.803 481.116 157.721 469.162 154.758 464.117Z" fill="#96A5B2"/>
<path d="M241.903 142.212V486.025H313.231C314.307 454.279 320.962 429.834 329.017 429.834C337.071 429.834 343.726 454.279 344.802 486.025H370.839V142.212H241.903Z" fill="#13A7CF"/>
<path d="M241.903 222.976H183.864C173.688 222.976 165.071 230.372 163.668 240.309L148.895 344.946L130.376 363.794C124.235 370.045 120.802 378.406 120.802 387.11V486.024H135.829C136.904 454.28 143.56 429.834 151.614 429.834C159.669 429.834 166.324 454.28 167.401 486.024H241.903V222.976Z" fill="#FF9268"/>
<path d="M706.158 509.257H370.839V486.024H706.158V509.257Z" fill="#C4D3D8"/>
<path d="M370.839 509.359H344.905V486.024H370.839V509.359Z" fill="#96A5B2"/>
<path d="M241.903 486.024V486.128L167.401 486.024V509.359H241.903H313.231V486.128L241.903 486.024Z" fill="#96A5B2"/>
<path d="M135.829 486.128V509.36H115.363V486.024L135.829 486.128Z" fill="#96A5B2"/>
<path d="M217.318 237.719H183.864C181.165 237.719 178.85 239.707 178.479 242.342L163.993 344.946H217.318V237.719Z" fill="#2FD4EB"/>
<path d="M215.28 332.436C210.057 327.287 202.974 324.395 195.588 324.395H175.857L185.755 246.323C185.925 244.982 187.081 243.974 188.452 243.974H217.318V237.72H183.864C181.165 237.72 178.85 239.706 178.479 242.342L163.993 344.946H217.318V332.436H215.28Z" fill="#13A7CF"/>
<g opacity="0.5">
<g opacity="0.5">
<path opacity="0.5" d="M210.807 330.819C203.76 325.352 199.646 316.999 199.646 308.159V243.975C199.646 242.494 200.864 241.294 202.365 241.294H210.748C212.249 241.294 213.467 242.494 213.467 243.975V329.545C213.467 330.899 211.886 331.656 210.807 330.819Z" fill="white"/>
</g>
</g>
<path d="M159.431 335.397H148.471V340.757H159.431C160.932 340.757 162.15 339.557 162.15 338.077C162.15 336.596 160.932 335.397 159.431 335.397Z" fill="#435277"/>
<path d="M145.496 307.082H131.259C129.257 307.082 127.633 308.682 127.633 310.657V342.153C127.633 344.127 129.257 345.728 131.259 345.728H145.496C147.499 345.728 149.122 344.127 149.122 342.153V310.657C149.122 308.682 147.499 307.082 145.496 307.082Z" fill="#435277"/>
<path d="M150.934 307.082H136.697C134.694 307.082 133.071 308.682 133.071 310.657V342.153C133.071 344.127 134.694 345.728 136.697 345.728H150.934C152.936 345.728 154.56 344.127 154.56 342.153V310.657C154.56 308.682 152.936 307.082 150.934 307.082Z" fill="#2FD4EB"/>
<path d="M212.334 344.946V471.496C212.334 472.853 213.449 473.953 214.827 473.953C216.202 473.953 217.319 472.853 217.319 471.496V344.946H212.334Z" fill="#E86164"/>
<path d="M128.811 431.844C127.685 431.844 126.772 430.943 126.772 429.834V388.615C126.772 380.39 129.969 372.607 135.773 366.698C136.558 365.9 137.849 365.882 138.657 366.653C139.466 367.425 139.486 368.697 138.703 369.496C133.639 374.65 130.851 381.44 130.851 388.615V429.834C130.851 430.943 129.938 431.844 128.811 431.844Z" fill="#FFDE88"/>
<path d="M142.434 364.819C141.923 364.819 141.411 364.63 141.014 364.253C140.207 363.48 140.185 362.207 140.969 361.409L144.912 357.399C145.697 356.6 146.988 356.581 147.795 357.354C148.604 358.125 148.624 359.399 147.841 360.197L143.898 364.208C143.499 364.616 142.966 364.819 142.434 364.819Z" fill="#FFDE88"/>
<path d="M626.628 472.62H517.294V364.819H626.628V472.62Z" fill="#FFD16B"/>
<path d="M581.702 398.559H562.217V364.819H581.702V398.559Z" fill="#069E7B"/>
<path d="M517.294 364.819H493.768V472.62H517.294V364.819Z" fill="#FFAA59"/>
<path d="M584.136 364.819H491.912V273.888H584.136V364.819Z" fill="#FFD16B"/>
<path d="M546.243 302.348H529.806V273.888H546.243V302.348Z" fill="#069E7B"/>
<path d="M491.913 273.888H462.158V364.819H491.913V273.888Z" fill="#FFAA59"/>
<path d="M462.158 364.819H384.434V257.017H462.158V364.819Z" fill="#FFD16B"/>
<path d="M417.233 290.758H397.748V257.018H417.233V290.758Z" fill="#069E7B"/>
<path d="M462.158 364.819H384.434V345.84L462.158 364.819Z" fill="#FFAA59"/>
<path d="M493.768 472.62H384.432V364.819H493.768V472.62Z" fill="#FFD16B"/>
<path d="M448.843 398.559H429.358V364.819H448.843V398.559Z" fill="#069E7B"/>
<path d="M493.768 472.621H384.433V448.152L493.768 472.621Z" fill="#FFAA59"/>
<path d="M394.098 501.773H370.818V486.024H410.071C410.071 494.723 402.919 501.773 394.098 501.773Z" fill="#FF9268"/>
<path d="M682.9 501.773H706.18V486.024H666.926C666.926 494.723 674.077 501.773 682.9 501.773Z" fill="#FF9268"/>
<path d="M370.839 501.773C363.007 501.773 356.658 495.514 356.658 487.791V486.024H370.839V501.773Z" fill="#BC4063"/>
<path d="M370.839 142.212L241.903 431.844V486.025H268.35L370.839 272.015V142.212Z" fill="#0095BA"/>
<path d="M347.368 231.687H237.935V240.735H347.368V231.687Z" fill="white"/>
<path d="M237.937 249.783H347.369V240.735H237.937V249.783Z" fill="#C4D3D8"/>
<path d="M347.368 231.688V240.735V249.783H354.958V240.735V231.688H347.368Z" fill="#96A5B2"/>
<path d="M347.368 329.03H237.935V338.077H347.368V329.03Z" fill="white"/>
<path d="M237.937 347.124H347.369V338.076H237.937V347.124Z" fill="#C4D3D8"/>
<path d="M347.368 329.029V338.077V347.125H354.958V338.077V329.029H347.368Z" fill="#96A5B2"/>
<path d="M734.776 291.247H761.291H785.477H811.361H826.035L865.04 569.599H824.482L792.893 348.168H766.898L780.016 569.599H739.459L720.731 291.247H734.776Z" fill="#374672"/>
<path d="M867.812 569.599H821.411L819.524 556.352H865.955L867.812 569.599Z" fill="#797D9C"/>
<path d="M782.671 569.599H736.269L735.556 556.352H781.987L782.671 569.599Z" fill="#797D9C"/>
<path d="M827.649 569.599H861.956L864.607 575.012C866.672 579.229 870.235 582.548 874.621 584.342C879.163 586.2 882.756 589.688 884.776 594.028H830.021L827.649 569.599Z" fill="#FFAA59"/>
<path d="M884.775 594.028C885.185 594.909 885.552 595.811 885.825 596.757L887.253 601.717H830.767L830.022 594.028H884.775Z" fill="#FFD16B"/>
<path d="M726.735 582.406C733.754 580.664 739.75 576.174 743.338 569.975L743.556 569.598H777.054L780.217 594.028H710.626C714.232 588.288 719.982 584.083 726.735 582.406Z" fill="#FFAA59"/>
<path d="M710.625 594.028H780.218L781.213 601.717H707.054L708.576 598.004C709.147 596.612 709.836 595.284 710.625 594.028Z" fill="#FFD16B"/>
<path d="M722.826 322.373H765.962L773.39 333.234C775.756 336.693 779.711 338.765 783.942 338.765C797.043 338.765 809.792 334.589 820.288 326.859L830.022 319.693L826.035 291.247H720.732L722.826 322.373Z" fill="#442849"/>
<path d="M720.731 291.247H826.035L834.581 281.224L817.628 166.615H730.184L712.598 281.224L720.731 291.247Z" fill="#FF406A"/>
<path d="M759.987 158.147H789.262L776.279 166.616H765.962L759.987 158.147Z" fill="#FF9268"/>
<path d="M762.337 130.918V166.614L771.851 176.897L785.477 166.614V130.918H762.337Z" fill="#FFCAAD"/>
<path d="M775.759 154.028C771.589 155.892 766.785 156.269 762.337 155.217V130.917H785.477V144.919C783.347 148.882 779.907 152.173 775.759 154.028Z" fill="#442849"/>
<path d="M768.865 75.7494C784.249 75.7494 796.72 88.0455 796.72 103.214V123.811C796.72 138.979 784.249 151.273 768.865 151.273C753.482 151.273 741.011 138.979 741.011 123.811V103.214C741.011 88.0455 753.482 75.7494 768.865 75.7494Z" fill="#FFCAAD"/>
<path d="M796.72 103.213C796.72 88.045 784.249 75.749 768.865 75.749C753.482 75.749 741.011 88.045 741.011 103.213V108.956H796.72V103.213Z" fill="#FFA78E"/>
<path d="M762.933 112.522C763.938 112.522 764.752 113.325 764.752 114.315V116.622C764.752 117.613 763.938 118.415 762.933 118.415C761.927 118.415 761.114 117.613 761.114 116.622V114.315C761.114 113.325 761.927 112.522 762.933 112.522Z" fill="#442849"/>
<path d="M744.134 110.984C744.993 110.984 745.693 111.787 745.693 112.778V115.084C745.693 116.075 744.993 116.878 744.134 116.878C743.273 116.878 742.574 116.075 742.574 115.084V112.778C742.574 111.787 743.273 110.984 744.134 110.984Z" fill="#442849"/>
<path d="M748.66 124.025C751.098 124.621 753.606 124.938 756.117 124.968C755.53 125.64 754.889 126.395 754.14 126.887C753.392 127.379 752.458 127.665 751.582 127.463C750.832 127.289 750.198 126.776 749.739 126.166C749.279 125.556 748.963 124.724 748.66 124.025Z" fill="#FFA78E"/>
<path d="M748.399 131.775C754.141 133.135 760.192 133.196 765.962 131.958C765.49 134.603 763.487 136.971 761.069 138.209C758.653 139.448 755.65 139.508 753.184 138.368C750.717 137.229 748.98 134.399 748.399 131.775Z" fill="white"/>
<path d="M764.74 105.079C767.762 105.441 770.262 107.19 771.691 109.594L756.893 107.816C758.863 105.82 761.718 104.716 764.74 105.079Z" fill="#793348"/>
<path d="M743.785 105.698C742.427 105.96 741.301 107.221 740.657 108.956L747.314 107.674C746.428 106.233 745.144 105.436 743.785 105.698Z" fill="#793348"/>
<path d="M793.079 125.798C790.315 125.908 787.113 125.834 785.387 123.702C784.314 122.377 784.118 120.581 783.961 118.893L781.864 96.0585C778.971 98.5421 732.513 92.4374 743.043 79.7241C746.861 75.1177 751.606 71.2407 756.841 68.2835C762.074 65.3249 768.17 63.5904 774.162 64.274C780.155 64.9575 785.974 68.2926 788.797 73.5498C793.777 73.2559 799.109 76.2853 801.936 80.3394C804.762 84.3935 805.785 89.4604 805.707 94.3791C805.629 99.2991 804.525 104.139 803.422 108.937C802.683 112.154 801.933 115.393 800.562 118.402C799.192 121.409 796.42 125.662 793.079 125.798Z" fill="#793348"/>
<path d="M803.423 108.938C804.524 104.14 805.629 99.2984 805.707 94.3797C805.784 89.4597 804.762 84.3927 801.936 80.3386C799.11 76.2846 793.778 73.2552 788.797 73.5504C785.975 68.2932 780.156 64.9581 774.162 64.2745C768.17 63.591 762.075 65.3254 756.84 68.2827C751.606 71.2399 746.86 75.1182 743.044 79.7246C732.514 92.4366 778.972 98.5426 781.864 96.059L783.049 108.956H803.417C803.419 108.951 803.42 108.944 803.423 108.938Z" fill="#442849"/>
<path d="M762.204 60.6211H757.668C747.378 60.6211 739.039 68.8448 739.039 78.9891V100.309H780.834V78.9891C780.834 68.8448 772.493 60.6211 762.204 60.6211Z" fill="#069E7B"/>
<path d="M783.386 61.008H762.472C772.762 61.008 781.101 69.2316 781.101 79.376V100.696H807.338V84.624C807.338 71.5814 796.614 61.008 783.386 61.008Z" fill="#07AF89"/>
<path d="M782.379 94.9772H716.505C715.012 94.9772 713.802 96.1711 713.802 97.6432C713.802 99.1152 715.012 100.309 716.505 100.309H782.379C783.872 100.309 785.083 99.1152 785.083 97.6432C785.083 96.1711 783.872 94.9772 782.379 94.9772Z" fill="#FFAA59"/>
<path d="M780.053 132.649L778.838 130.315L797.917 120.65L799.132 122.982L780.053 132.649Z" fill="white"/>
<path d="M781.629 140.109L780.928 137.578L800.954 132.172L801.658 134.702L781.629 140.109Z" fill="white"/>
<path d="M781.299 130.602C777.968 130.602 774.655 130.142 771.454 129.234L755.223 124.629C753.373 124.103 751.408 124.113 749.562 124.659L739.472 127.648V129.668C739.472 142.8 750.27 153.445 763.588 153.445C769.336 153.445 775.026 152.316 780.326 150.125L784.194 148.525V130.602H781.299Z" fill="#2FD4EB"/>
<path d="M755.223 124.629L771.454 129.234C774.655 130.142 777.968 130.602 781.299 130.602H784.193V126.986H781.299C777.968 126.986 774.655 126.526 771.454 125.618L755.223 121.013C753.372 120.488 751.408 120.498 749.563 121.043L739.472 124.025V127.647L749.563 124.659C751.408 124.113 753.372 124.104 755.223 124.629Z" fill="white"/>
<path d="M788.001 129.182C788.001 134.518 792.389 138.844 797.799 138.844C803.212 138.844 807.601 134.518 807.601 129.182C807.601 123.846 803.212 119.52 797.799 119.52C792.389 119.52 788.001 123.846 788.001 129.182Z" fill="#FFCAAD"/>
<path d="M792.639 129.182C792.639 131.992 794.949 134.27 797.8 134.27C800.651 134.27 802.961 131.992 802.961 129.182C802.961 126.37 800.651 124.093 797.8 124.093C794.949 124.093 792.639 126.37 792.639 129.182Z" fill="#FFA78E"/>
<path d="M776.279 166.615L783.495 185.042L792.109 166.615L789.262 158.146L776.279 166.615Z" fill="#FFC067"/>
<path d="M765.962 166.615L761.113 181.981L757.18 166.615L759.988 158.146L765.962 166.615Z" fill="#FFC067"/>
<path d="M765.962 166.615L771.852 176.897L763.643 173.965L765.962 166.615Z" fill="#FF9268"/>
<path d="M776.279 166.615L771.852 176.897L779.483 174.798L776.279 166.615Z" fill="#FF9268"/>
<path d="M730.185 166.615C717.661 166.615 706.068 173.14 699.7 183.772L682.696 212.157L722.65 215.721L730.185 166.615Z" fill="#FF406A"/>
<path d="M690.573 303.637C692.153 301.996 693.732 300.354 695.312 298.713H691.474C690.658 300.221 690.278 301.967 690.573 303.637Z" fill="#FFA78E"/>
<path d="M695.311 298.712C693.732 300.354 692.152 301.995 690.573 303.636C690.279 301.966 690.659 300.221 691.473 298.712H685.617C685.949 302.322 689.595 306.108 693.262 306.351C695.613 306.506 697.939 305.593 699.838 304.219C701.738 302.845 703.705 300.56 705.134 298.712H695.311Z" fill="#FFCAAD"/>
<path d="M683.994 303.637C685.573 301.996 687.153 300.354 688.734 298.713H684.895C684.079 300.221 683.7 301.967 683.994 303.637Z" fill="#FFA78E"/>
<path d="M688.733 298.712C687.154 300.354 685.574 301.995 683.993 303.636C683.701 301.966 684.08 300.221 684.894 298.712H679.038C679.369 302.322 683.015 306.108 686.683 306.351C689.034 306.506 691.361 305.593 693.26 304.219C695.16 302.845 697.126 300.56 698.555 298.712H688.733Z" fill="#FFCAAD"/>
<path d="M674.236 303.637C675.815 301.996 677.395 300.354 678.974 298.713H675.137C674.321 300.221 673.941 301.967 674.236 303.637Z" fill="#FFA78E"/>
<path d="M678.974 298.712C677.394 300.354 675.815 301.995 674.235 303.636C673.941 301.966 674.322 300.221 675.136 298.712H669.28C669.611 302.322 673.257 306.108 676.925 306.351C679.276 306.506 681.602 305.593 683.501 304.219C685.402 302.845 687.368 300.56 688.797 298.712H678.974Z" fill="#FFCAAD"/>
<path d="M647.549 298.712H764.612V183.293H647.549V298.712Z" fill="#FFD16B"/>
<path d="M695.606 219.149H716.468V183.024H695.606V219.149Z" fill="#069E7B"/>
<path d="M764.61 183.293H818.424V298.712H764.61V183.293Z" fill="#FFAA59"/>
<path d="M801.307 298.955L783.741 283.756C781.728 284.525 780.785 286.9 780.805 289.029C780.825 291.159 781.9 293.171 783.35 294.751C784.797 296.329 786.607 297.535 788.397 298.726H766.899C767.163 300.158 767.944 301.52 768.972 302.589C770.455 304.132 772.384 305.177 774.277 306.198C773.4 309.6 774.388 313.387 777.251 315.471C778.248 316.197 779.398 316.722 780.282 317.577C781.644 318.892 782.213 320.827 783.497 322.215C785.409 324.283 788.501 324.754 791.338 324.831C801.235 325.102 810.896 321.888 818.84 316.061L801.307 298.955Z" fill="#FFCAAD"/>
<path d="M817.628 166.615C829.767 166.615 840.892 173.287 846.479 183.914L879.055 245.902C884.589 256.435 881.612 269.368 872.007 276.512L818.839 316.06L801.306 298.955L851.675 257.535L823.373 205.461L817.628 166.615Z" fill="#FFCAAD"/>
<path d="M851.612 185.554C844.436 173.802 831.541 166.614 817.629 166.614L823.373 205.46L831.585 225.794L862.29 203.043L851.612 185.554Z" fill="#FF406A"/>
<path d="M869.323 214.563L862.29 203.043L831.585 225.793L836.056 236.867L869.323 214.563Z" fill="#FFC067"/>
<path d="M839.271 234.712L864.341 217.904L843.546 242.58L839.271 234.712Z" fill="#442849"/>
</svg>
