<svg width="1000" height="667" viewBox="0 0 1000 667" fill="none" xmlns="http://www.w3.org/2000/svg">
<path d="M667.823 117.562C666.816 117.562 666 118.378 666 119.385V121.729C666 122.736 666.816 123.552 667.823 123.552C668.831 123.552 669.645 122.736 669.645 121.729V119.385C669.645 118.378 668.831 117.562 667.823 117.562Z" fill="#442849"/>
<path d="M686.66 116C685.799 116 685.097 116.816 685.097 117.823V120.167C685.097 121.173 685.799 121.989 686.66 121.989C687.523 121.989 688.223 121.173 688.223 120.167V117.823C688.223 116.816 687.523 116 686.66 116Z" fill="#442849"/>
<path d="M254.272 562.569C254.272 532.159 232.335 507.506 205.274 507.506H196.035C183.041 507.506 170.577 501.706 161.389 491.379L136.894 463.853C127.705 453.526 115.242 447.725 102.247 447.725C79.9105 447.725 61.8038 427.377 61.8038 402.278V394.779C61.8038 365.538 82.8975 341.834 108.919 341.834H147.911C157.128 341.834 164.6 333.436 164.6 323.079C164.6 312.72 157.128 304.323 147.911 304.323H126.854C113.55 304.323 102.764 292.203 102.764 277.252C102.764 262.301 113.55 250.181 126.854 250.181H288.506C299.872 250.181 309.088 239.826 309.088 227.052C309.088 214.278 299.872 203.923 288.506 203.923H268.427C245.502 203.923 226.918 183.039 226.918 157.275C226.918 131.513 245.502 110.627 268.427 110.627H325.03C350.944 110.627 375.798 99.0596 394.123 78.4659C412.448 57.8737 437.301 46.3047 463.216 46.3047H503.766H607.585C629.396 46.3047 650.314 56.0411 665.739 73.3731C681.161 90.705 702.079 100.443 723.891 100.443H875.393C890.93 100.443 903.526 114.598 903.526 132.058C903.526 149.519 890.93 163.674 875.393 163.674H834.31C815.066 163.674 799.466 181.203 799.466 202.829C799.466 224.454 815.066 241.985 834.31 241.985H884.124C908.908 241.985 929 264.562 929 292.414V292.415C929 320.265 908.908 342.844 884.124 342.844H805.192C786.611 342.844 771.55 359.769 771.55 380.649C771.55 401.529 786.611 418.455 805.192 418.455H846.126C868.313 418.455 886.298 438.667 886.298 463.601C886.298 488.533 868.313 508.745 846.126 508.745H788.558C758.495 508.745 729.665 522.166 708.408 546.054H708.406C687.15 569.944 658.32 583.363 628.256 583.363H608.248C593.488 583.363 579.331 589.953 568.894 601.682C558.329 613.554 543.961 620.154 529.022 619.997L302.813 617.629C275.932 617.346 254.272 592.779 254.272 562.569Z" fill="#333366" fill-opacity="0.78"/>
<path d="M363.782 304.376H337.214H312.979H287.043H272.341L233.257 587.254H273.897L305.549 362.222H331.595L318.451 587.254H359.09L377.855 304.376H363.782Z" fill="#383772"/>
<path d="M230.48 587.254H276.973L278.864 573.791H232.34L230.48 587.254Z" fill="#797D9C"/>
<path d="M315.791 587.254H362.286L363 573.791H316.476L315.791 587.254Z" fill="#797D9C"/>
<path d="M270.723 587.254H236.347L233.691 592.755C231.622 597.04 228.051 600.414 223.657 602.236C219.106 604.124 215.506 607.67 213.482 612.08H268.346L270.723 587.254Z" fill="#FFAA59"/>
<path d="M213.483 612.081C213.072 612.975 212.704 613.893 212.431 614.854L211 619.894H267.599L268.345 612.081H213.483Z" fill="#FFD16B"/>
<path d="M371.839 600.269C364.806 598.499 358.798 593.936 355.203 587.636L354.985 587.253H321.419L318.25 612.08H387.981C384.367 606.247 378.606 601.973 371.839 600.269Z" fill="#FFAA59"/>
<path d="M387.981 612.081H318.249L317.252 619.894H391.56L390.035 616.121C389.463 614.706 388.772 613.357 387.981 612.081Z" fill="#FFD16B"/>
<path d="M375.756 336.008H332.533L325.091 347.046C322.72 350.56 318.757 352.667 314.517 352.667C301.391 352.667 288.616 348.423 278.099 340.567L268.345 333.284L272.34 304.376H377.855L375.756 336.008Z" fill="#442849"/>
<path d="M377.855 304.376H272.34L263.778 294.19L280.764 177.717H368.383L386.004 294.19L377.855 304.376Z" fill="#FF406A"/>
<path d="M338.52 169.111H309.187L322.196 177.718H332.534L338.52 169.111Z" fill="#FF9268"/>
<path d="M336.166 141.439V177.717L326.633 188.166L312.98 177.717V141.439H336.166Z" fill="#FFCAAD"/>
<path d="M322.717 164.926C326.896 166.82 331.709 167.203 336.166 166.134V141.439H312.98V155.668C315.114 159.696 318.561 163.04 322.717 164.926Z" fill="#442849"/>
<path d="M329.624 85.3742C314.21 85.3742 301.714 97.8702 301.714 113.285V134.217C301.714 149.632 314.21 162.126 329.624 162.126C345.039 162.126 357.535 149.632 357.535 134.217V113.285C357.535 97.8702 345.039 85.3742 329.624 85.3742Z" fill="#FFCAAD"/>
<path d="M301.714 113.284C301.714 97.8698 314.21 85.3738 329.625 85.3738C345.038 85.3738 357.534 97.8698 357.534 113.284V119.12H301.714V113.284Z" fill="#FFA78E"/>
<path d="M335.569 122.745C334.562 122.745 333.746 123.561 333.746 124.567V126.911C333.746 127.918 334.562 128.734 335.569 128.734C336.577 128.734 337.391 127.918 337.391 126.911V124.567C337.391 123.561 336.577 122.745 335.569 122.745Z" fill="#442849"/>
<path d="M354.406 121.182C353.545 121.182 352.843 121.998 352.843 123.005V125.349C352.843 126.356 353.545 127.172 354.406 127.172C355.269 127.172 355.969 126.356 355.969 125.349V123.005C355.969 121.998 355.269 121.182 354.406 121.182Z" fill="#442849"/>
<path d="M349.871 134.435C347.428 135.04 344.915 135.363 342.399 135.394C342.987 136.076 343.629 136.843 344.38 137.343C345.129 137.843 346.065 138.134 346.943 137.928C347.695 137.752 348.329 137.231 348.789 136.611C349.251 135.991 349.567 135.146 349.871 134.435Z" fill="#FFA78E"/>
<path d="M350.132 142.311C344.379 143.693 338.315 143.755 332.534 142.497C333.007 145.185 335.014 147.591 337.436 148.85C339.858 150.109 342.867 150.17 345.338 149.011C347.81 147.854 349.55 144.978 350.132 142.311Z" fill="white"/>
<path d="M333.759 115.181C330.731 115.549 328.225 117.326 326.793 119.769L341.621 117.962C339.647 115.934 336.787 114.812 333.759 115.181Z" fill="#793348"/>
<path d="M354.755 115.81C356.116 116.076 357.244 117.358 357.89 119.12L351.219 117.818C352.107 116.354 353.394 115.543 354.755 115.81Z" fill="#793348"/>
<path d="M305.363 136.236C308.132 136.348 311.34 136.274 313.069 134.107C314.145 132.76 314.341 130.935 314.499 129.219L316.6 106.014C319.499 108.538 366.049 102.334 355.499 89.4136C351.673 84.7322 346.919 80.7922 341.673 77.7869C336.429 74.7802 330.321 73.0176 324.317 73.7122C318.312 74.4069 312.481 77.7962 309.653 83.1389C304.663 82.8402 299.32 85.9189 296.488 90.0389C293.656 94.1589 292.631 99.3082 292.709 104.307C292.787 109.307 293.893 114.226 294.999 119.102C295.739 122.371 296.491 125.663 297.864 128.72C299.237 131.776 302.015 136.099 305.363 136.236Z" fill="#793348"/>
<path d="M294.998 119.102C293.894 114.226 292.788 109.306 292.709 104.307C292.632 99.3075 293.656 94.1582 296.488 90.0382C299.32 85.9182 304.662 82.8395 309.653 83.1395C312.481 77.7968 318.312 74.4075 324.317 73.7128C330.321 73.0182 336.429 74.7808 341.674 77.7862C346.918 80.7915 351.674 84.7328 355.498 89.4142C366.049 102.333 319.498 108.538 316.6 106.014L315.413 119.121H295.004C295.002 119.115 295.001 119.109 294.998 119.102Z" fill="#442849"/>
<path d="M336.299 70H340.844C351.155 70 359.511 78.3573 359.511 88.6667V110.333H317.632V88.6667C317.632 78.3573 325.99 70 336.299 70Z" fill="#069E7B"/>
<path d="M315.343 70H336.299C325.989 70 317.633 78.3573 317.633 88.6667V110.333H291.343V94C291.343 80.7453 302.089 70 315.343 70Z" fill="#07AF89"/>
<path d="M316.084 104.915H382.089C383.585 104.915 384.799 106.128 384.799 107.624C384.799 109.12 383.585 110.333 382.089 110.333H316.084C314.588 110.333 313.375 109.12 313.375 107.624C313.375 106.128 314.588 104.915 316.084 104.915Z" fill="#FFAA59"/>
<path d="M318.415 143.199L319.632 140.827L300.515 131.004L299.298 133.375L318.415 143.199Z" fill="white"/>
<path d="M316.835 150.78L317.538 148.208L297.471 142.714L296.766 145.286L316.835 150.78Z" fill="white"/>
<path d="M317.166 141.119C320.504 141.119 323.824 140.651 327.03 139.728L343.294 135.048C345.148 134.514 347.117 134.524 348.966 135.079L359.077 138.116V140.17C359.077 153.515 348.257 164.334 334.913 164.334C329.153 164.334 323.452 163.186 318.141 160.959L314.265 159.334V141.119H317.166Z" fill="#2FD4EB"/>
<path d="M343.294 135.048L327.031 139.728C323.823 140.651 320.503 141.119 317.166 141.119H314.266V137.444H317.166C320.503 137.444 323.823 136.976 327.031 136.053L343.294 131.373C345.149 130.84 347.117 130.851 348.966 131.404L359.077 134.435V138.116L348.966 135.079C347.117 134.524 345.149 134.515 343.294 135.048Z" fill="white"/>
<path d="M310.45 139.676C310.45 145.098 306.054 149.494 300.633 149.494C295.209 149.494 290.811 145.098 290.811 139.676C290.811 134.253 295.209 129.857 300.633 129.857C306.054 129.857 310.45 134.253 310.45 139.676Z" fill="#FFCAAD"/>
<path d="M305.803 139.676C305.803 142.532 303.488 144.846 300.632 144.846C297.775 144.846 295.46 142.532 295.46 139.676C295.46 136.818 297.775 134.504 300.632 134.504C303.488 134.504 305.803 136.818 305.803 139.676Z" fill="#FFA78E"/>
<path d="M322.196 177.717L314.966 196.444L306.335 177.717L309.187 169.111L322.196 177.717Z" fill="#FFC067"/>
<path d="M332.533 177.717L337.392 193.333L341.333 177.717L338.52 169.111L332.533 177.717Z" fill="#FFC067"/>
<path d="M332.533 177.717L326.632 188.167L334.857 185.187L332.533 177.717Z" fill="#FF9268"/>
<path d="M322.196 177.717L326.632 188.167L318.986 186.033L322.196 177.717Z" fill="#FF9268"/>
<path d="M368.382 177.717C380.932 177.717 392.548 184.348 398.929 195.153L415.966 224L375.933 227.621L368.382 177.717Z" fill="#FF406A"/>
<path d="M408.074 316.967C406.491 315.299 404.908 313.631 403.326 311.963H407.171C407.988 313.495 408.37 315.27 408.074 316.967Z" fill="#FFA78E"/>
<path d="M403.326 311.963C404.909 313.631 406.492 315.299 408.074 316.967C408.369 315.269 407.988 313.496 407.172 311.963H413.04C412.708 315.631 409.054 319.479 405.38 319.725C403.024 319.883 400.693 318.955 398.79 317.559C396.886 316.163 394.916 313.84 393.484 311.963H403.326Z" fill="#FFCAAD"/>
<path d="M414.666 316.967C413.084 315.299 411.501 313.631 409.917 311.963H413.764C414.581 313.495 414.961 315.27 414.666 316.967Z" fill="#FFA78E"/>
<path d="M409.917 311.963C411.5 313.631 413.083 315.299 414.667 316.967C414.96 315.269 414.58 313.496 413.764 311.963H419.632C419.3 315.631 415.647 319.479 411.972 319.725C409.616 319.883 407.284 318.955 405.381 317.559C403.477 316.163 401.508 313.84 400.076 311.963H409.917Z" fill="#FFCAAD"/>
<path d="M424.444 316.967C422.861 315.299 421.278 313.631 419.696 311.963H423.541C424.358 313.495 424.74 315.27 424.444 316.967Z" fill="#FFA78E"/>
<path d="M419.696 311.963C421.279 313.631 422.861 315.299 424.444 316.967C424.739 315.269 424.357 313.496 423.541 311.963H429.409C429.077 315.631 425.424 319.479 421.749 319.725C419.393 319.883 417.063 318.955 415.16 317.559C413.255 316.163 411.285 313.84 409.853 311.963H419.696Z" fill="#FFCAAD"/>
<path d="M333.887 194.666L451.184 194.666V311.962H333.887V194.666Z" fill="#FFD16B"/>
<path d="M402.988 231.378H382.084V194.666H402.988V231.378Z" fill="#069E7B"/>
<path d="M333.888 194.666H279.967V311.962H333.888V194.666Z" fill="#FFAA59"/>
<path d="M297.118 312.209L314.719 296.764C316.737 297.545 317.681 299.958 317.661 302.122C317.641 304.286 316.563 306.332 315.111 307.937C313.661 309.541 311.847 310.766 310.054 311.977H331.595C331.33 313.432 330.547 314.816 329.518 315.902C328.031 317.47 326.099 318.533 324.202 319.57C325.081 323.028 324.091 326.876 321.222 328.994C320.223 329.732 319.071 330.265 318.185 331.134C316.821 332.47 316.25 334.437 314.963 335.848C313.047 337.949 309.95 338.428 307.107 338.506C297.19 338.781 287.51 335.516 279.55 329.593L297.118 312.209Z" fill="#FFCAAD"/>
<path d="M280.764 177.717C268.601 177.717 257.453 184.497 251.856 195.297L219.215 258.293C213.669 268.997 216.652 282.141 226.276 289.401L279.551 329.592L297.119 312.209L246.649 270.116L275.008 217.195L280.764 177.717Z" fill="#FFCAAD"/>
<path d="M246.712 196.965C253.902 185.021 266.824 177.717 280.764 177.717L275.008 217.194L266.78 237.858L236.013 214.738L246.712 196.965Z" fill="#FF406A"/>
<path d="M228.966 226.445L236.012 214.738L266.779 237.858L262.299 249.111L228.966 226.445Z" fill="#FFC067"/>
<path d="M259.078 246.921L233.958 229.84L254.794 254.917L259.078 246.921Z" fill="#442849"/>
<path d="M637.088 253.424C634.136 259.136 631.145 264.97 630.256 271.262C629.364 277.553 630.918 284.494 635.892 288.798C644.1 295.899 658.218 292.72 665.716 284.961C673.215 277.201 675.811 266.443 678.134 256.201C681.78 240.123 685.429 224.045 689.078 207.967C691.048 199.275 699.853 182.524 685.398 182.754C673.484 182.942 666.419 196.697 662.213 204.795C653.799 220.986 645.462 237.213 637.088 253.424Z" fill="#398F7C"/>
<path d="M641.03 260.649C638.901 259.735 636.789 258.817 634.722 257.823C624.863 253.09 615.884 246.998 606.201 242.003C600.011 238.963 593.921 235.726 587.766 232.623C583.173 230.307 577.616 225.525 572.537 224.558C571.473 228.211 573.235 231.83 575.51 234.705C566.372 235.868 557.24 237.522 547.939 238.451C546.547 242.039 548.026 246.248 550.93 248.923C553.836 251.6 557.929 252.902 561.987 253.248C572.554 254.149 583.712 249.632 594.042 253.046C600.953 255.328 606.566 262.52 611.893 267.156C619.6 273.874 627.28 280.437 635.459 286.633C641.323 285.101 643.745 281.836 645.041 276.26C646.336 270.683 646.567 263.022 641.03 260.649Z" fill="#A8652D"/>
<path d="M729.378 569.163C732.724 575.442 744.717 597.501 736.608 603.145C735.462 603.945 734.096 604.408 732.751 604.862L723.827 607.869C705.814 613.975 689.867 616.318 670.839 617.732C669.012 617.867 666.989 617.949 665.562 616.871C659.036 611.936 672.222 610.692 674.312 609.742C680.164 607.072 685.835 600.411 690.15 595.956C695.884 590.034 701.119 584.362 705.169 577.293C707.742 572.797 706.061 572.937 710.366 570.146C711.504 569.409 727.346 565.456 727.423 565.593C728.064 566.734 728.718 567.929 729.378 569.163Z" fill="#3D535C"/>
<path d="M655.287 366.355C655.325 364.719 655.344 363.07 655.384 361.436L712.1 314.878C713.426 316.803 714.658 318.789 715.792 320.814C720.459 329.196 723.019 338.408 723.325 347.854C723.595 356.434 722.032 364.918 719.751 373.208C717.143 382.744 714.233 392.18 712.102 401.814C709.804 412.275 707.879 422.938 704.581 433.186C701.973 441.282 698.156 448.926 698.596 457.575C698.774 461.197 699.16 465.042 700.54 468.452C701.925 471.883 704.435 474.791 706.769 477.677C712.458 484.73 717.769 491.843 721.638 499.948C725.696 508.398 727.423 517.117 728.227 526.293C729.08 536.047 729.379 546.081 731.784 555.649C732.612 558.912 734.351 561.843 735.256 565.071C735.999 567.704 735.876 570.525 735.509 573.212L710.868 578.599C709.764 576.161 708.893 573.614 708.457 570.995C707.919 567.771 708.166 564.482 707.709 561.239C706.668 553.853 703.672 547.22 700.048 540.663C695.806 532.981 691.586 525.296 687.887 517.355C684.506 510.118 681.629 502.533 677.242 495.772C673.048 489.274 666.956 484.389 661.723 478.696C658.568 475.255 656.282 471.57 655.765 467.007C655.325 463.194 655.799 459.332 655.979 455.51C656.148 452.258 656.098 448.993 655.983 445.737C655.656 436.377 655.308 427.023 655.153 417.671C654.818 399.81 657.755 379.9 654.699 362.505C651.789 345.936 648.546 331.742 662.565 317.931C675.401 305.287 697.482 301.959 713.895 310.196C715.117 313.184 713.808 316.902 710.929 318.618" fill="#59889C"/>
<path d="M701.121 580.712C702.922 587.525 709.469 611.513 700.241 615.356C698.935 615.899 697.494 616.072 696.074 616.239C692.938 616.604 689.8 616.972 686.663 617.338C669.776 619.315 653.402 619.827 636.418 619.999C628.537 620.079 617.756 616.23 630.932 611.692C639.946 608.589 648.753 603.964 656.59 598.797C663.566 594.199 670 589.737 675.602 583.674C679.165 579.816 677.49 579.607 682.344 577.766C683.626 577.28 700.006 576.677 700.048 576.826C700.406 578.073 700.767 579.373 701.121 580.712Z" fill="#4A6570"/>
<path d="M689.758 315.807C700.903 308.832 722.999 305.363 734.412 314.186C746.224 323.315 738.52 337.375 735.558 351.264C727.585 388.648 708.515 417.453 694.855 451.962C687.613 470.259 699.613 484.122 703.7 501.296C709.323 524.928 701.83 548.36 702.739 571.883C702.844 574.608 702.066 577.331 701.077 579.877L675.773 580.055C675.27 577.45 675.018 574.784 675.207 572.141C675.439 568.883 676.449 565.726 676.764 562.468C677.48 555.048 676.112 547.963 674.111 540.82C670.024 526.209 666.574 508.931 661.248 493.712C655.397 477.003 649.403 468.017 651.427 450.073C654.62 421.749 665.547 395.083 670.332 367.113C673.556 348.261 670.439 327.892 689.758 315.807Z" fill="#729CAD"/>
<path d="M662.658 338.613C670.437 346.887 680.79 353.166 692.249 355.656C703.709 358.148 716.247 356.684 726.301 350.959C730.047 348.826 733.547 345.983 735.2 342.178C736.853 338.374 736.199 333.482 732.781 330.909C730.141 328.92 726.517 328.656 723.133 328.475C700.194 327.25 677.258 326.022 654.32 324.797C655.19 335.61 664.655 345.288 676.07 347.034" fill="#59889C"/>
<path d="M673.284 162.955C682.773 167.98 694.427 163.995 705.052 163.165C706.99 162.944 704.803 153.69 704.468 152.738C701.608 144.586 698.656 136.269 693.145 129.417C688.752 123.956 685.163 118.158 679.439 113.68C677.948 112.516 659.364 103.144 659.294 104.364C658.716 114.54 660.277 124.242 661.622 134.387C662.701 142.524 662.077 153.312 668.852 159.747C670.264 161.087 671.745 162.14 673.284 162.955Z" fill="#4D3426"/>
<path d="M677.457 81.702C688.176 77.2421 701.592 76.695 710.745 80.6992C728.416 88.4296 730.126 104.411 732.746 120.343C733.986 127.871 742.597 151.416 736.368 157.503C734.803 159.033 732.486 159.616 730.293 160.133C724.059 161.6 717.826 163.069 711.592 164.539C707.148 165.585 702.552 166.641 698.027 165.954C687.334 164.331 686.678 156.473 682.985 149.125C678.651 140.503 671.515 132.928 667.068 124.179C662.398 114.988 657.039 102.13 663.395 92.4894C666.496 87.7837 671.57 84.1527 677.457 81.702Z" fill="#4D3426"/>
<path d="M734.578 293.097C734.587 295.259 734.643 297.411 734.761 299.553C735.515 313.179 747.68 323.905 732.95 335.954C725.761 341.835 715.805 343.763 706.273 344.151C678.635 345.27 635.831 337.421 647.906 305.144C653.621 289.862 655.963 269.394 654.589 253.254C653.868 244.78 651.987 236.406 651.667 227.913C651.055 211.733 659.776 204.749 667.636 191.943C674.334 181.032 681.985 172.426 695.595 169.364C702.852 167.731 711.058 167.975 718.46 167.808C725.712 167.645 731.013 169.769 735.739 174.941C742.719 182.579 739.076 190.549 738.146 200.235C736.064 221.923 735.971 243.722 735.5 265.48C735.305 274.592 734.536 283.913 734.578 293.097Z" fill="#48B59D"/>
<path d="M707.34 237.983C708.501 242.374 711.17 246.262 713.797 250.06C722.872 263.178 731.946 276.296 741.021 289.415C741.739 268.673 740.478 247.871 737.261 227.339C736.473 222.312 735.49 217.116 732.404 212.938C717.755 193.125 704.29 226.456 707.34 237.983Z" fill="#398F7C"/>
<path d="M721.487 295.196C720.492 297.184 719.492 299.156 718.415 301.084C713.966 309.082 708.358 316.569 702.288 323.54C691.051 336.392 679.116 348.956 672.264 364.072C671.656 365.416 679.198 362.904 679.594 362.68C682.292 361.15 684.308 357.018 686.074 354.7C684.532 364.463 680.432 373.17 676.862 382.425C675.909 384.892 693.624 378.342 695.708 375.879C701.262 369.307 704.428 359.212 706.745 351.243C707.608 348.244 708.213 345.251 709.856 342.514C714.358 334.995 721.887 328.782 728.146 322.578C735.385 315.417 742.457 308.278 749.144 300.67C747.567 295.157 744.108 292.854 738.173 291.585C732.238 290.319 724.072 290.028 721.487 295.196Z" fill="#A8652D"/>
<path d="M727.853 252.523C728.881 256.784 730.195 260.969 731.446 265.169C732.15 267.568 733.115 270.101 733.222 272.618C733.314 275.445 730.958 278.576 729.552 280.94C727.618 284.164 725.333 287.092 723.103 290.127C722.169 291.383 719.421 294.515 722.052 295.395C724.633 296.265 728.337 295.341 730.924 295.143C735.413 294.788 740.615 294.408 744.547 296.909C745.199 297.33 745.83 297.82 746.424 298.338C747.223 299.027 748.653 300.924 749.923 300.933C750.931 300.933 751.542 299.847 752.014 299.167C753.181 297.459 754.245 295.699 755.387 293.979C758.426 289.415 761.741 284.693 762.614 279.27C763.687 272.56 762.258 265.248 761.539 258.544C760.645 250.246 759.83 241.929 758.196 233.725C757.459 230.064 756.526 226.415 756.399 222.672C756.273 218.869 756.631 215.06 756.464 211.266C756.179 204.982 754.308 199.099 751.197 193.527C747.889 187.596 743.45 181.618 737.448 177.842C734.854 176.215 731.959 174.894 729.001 173.938C727.4 173.421 725.402 172.824 723.703 173.215C720.921 173.854 720.977 177.431 720.609 179.539C719.699 184.76 716.381 188.547 715.013 193.423C712.463 202.508 712.866 211.401 717.234 219.68C722.986 230.582 725 240.747 727.853 252.523Z" fill="#48B59D"/>
<path d="M665.326 145.908C666.104 149.243 667.578 151.256 669.451 152.521C675.512 156.665 685.574 153.034 688.415 161.46C689.028 163.296 690.269 165.823 690.859 168.31C691.343 170.303 691.385 172.296 690.353 173.836C689.869 174.546 688.962 175.278 689.175 176.205C689.383 177.113 690.562 177.644 691.406 177.94C693.13 178.532 695.104 178.475 696.912 178.337C707.73 177.511 715.947 172.255 725.434 168.489C722.665 164.675 717.08 162.862 714.285 158.757C709.659 151.961 709.385 141.945 710.384 134.174C711.191 127.887 716.86 122.557 714.455 116.321C712.748 111.901 708.076 113.085 705.824 116.361C704.498 118.277 703.741 120.467 702.73 122.52C702.078 123.842 701.299 125.519 699.487 124.828C693.137 122.459 696.17 111.015 693.323 105.938C690.635 101.14 685.771 98.4404 680.544 96.5656C677.387 95.4408 671.913 93.6037 668.693 95.5377C666.652 96.7827 665.957 99.506 665.134 101.499C664.21 103.788 662.948 105.959 662.232 108.309C659.263 118.356 662.988 135.941 665.326 145.908Z" fill="#A8652D"/>
<path d="M694.946 80.0694C705.576 83.6466 714.098 92.927 717.337 103.616C720.242 113.192 718.945 120.174 716.696 129.668C714.697 124.1 712.7 118.531 710.7 112.964C708.119 113.51 704.595 113.366 703.786 115.989C703.118 118.154 704.212 120.402 703.189 122.792C699.563 120.623 694.617 117.487 693.249 113.422C692.011 109.739 691.87 105.055 691.275 101.232C691.732 104.19 689.742 107.659 689.717 110.69C687.283 110.386 684.827 110.847 682.378 111.003C671.51 111.691 674.778 104.249 672.785 97.8355C672.651 98.8168 671.82 109.584 671.619 109.59C667.424 109.712 663.232 109.836 659.038 109.958C657.17 105.308 657.314 101.998 659.376 97.2973C662.573 90.0046 664.047 85.7384 671.438 81.98C679.584 77.8412 687.748 77.6474 694.946 80.0694Z" fill="#4D3426"/>
<path d="M671.634 152.92C671.498 152.923 671.362 152.925 671.228 152.928C674.22 154.855 677.861 154.762 681.288 155.618C684.715 156.472 687.305 158.171 688.415 161.461C689.169 163.723 690.105 166.15 690.95 168.28C692.995 166.649 693.158 163.366 693.661 161.064C694.13 158.912 694.379 156.725 694.427 154.527C694.57 148.153 688.7 150.706 684.313 151.396C680.171 152.048 675.845 152.819 671.634 152.92Z" fill="#96431F"/>
<path d="M666.957 127.459C672.928 126.686 685.985 128.385 691.061 129.108C690.988 128.896 691.013 128.657 691.221 128.48C694.851 125.373 698.591 122.366 702.395 119.449C703.34 118.726 704.702 119.969 703.751 120.721C700.034 123.668 696.23 126.537 692.35 129.296C692.859 129.372 693.146 129.416 693.146 129.416C696.385 135.719 694.621 143.684 693.357 147.713C696.992 145.814 700.407 144.43 703.329 141.379C706.694 137.866 707.588 134.074 709.285 129.84C709.53 129.232 710.492 129.303 710.521 129.996C710.827 137.881 701.287 148.121 692.951 148.939C692.649 149.798 692.429 150.308 692.429 150.308C692.429 150.308 683.205 160.462 671.227 152.929C659.252 145.396 661.131 131.305 661.131 131.305C661.131 131.305 659.459 128.431 666.957 127.459" fill="white"/>
<path d="M574.433 247.763C573.626 245.978 571.866 244.46 570.548 242.978C569.053 241.303 567.559 239.625 566.067 237.948C565.345 237.141 564.136 238.298 564.836 239.1C564.98 239.265 565.123 239.428 565.265 239.591C559.359 239.703 553.188 240.944 547.485 242.076C546.741 242.223 546.894 243.389 547.668 243.334C553.766 242.901 560.438 242.449 566.342 240.824C567.316 241.943 568.292 243.061 569.268 244.179C570.576 245.682 571.805 247.519 573.536 248.604C574.146 248.987 574.661 248.267 574.433 247.763Z" fill="#96431F"/>
<path d="M568.787 244.255C562.884 244.309 556.798 245.827 550.995 246.753C549.924 246.923 550.387 248.425 551.443 248.274C557.194 247.456 563.407 247.113 568.959 245.45C569.64 245.248 569.543 244.248 568.787 244.255Z" fill="#96431F"/>
<path d="M571.868 247.536C569.807 247.599 567.779 248.419 565.83 249.009C563.608 249.682 561.387 250.354 559.166 251.027C558.134 251.339 558.565 252.855 559.619 252.561C561.854 251.937 564.089 251.314 566.323 250.69C568.284 250.141 570.473 249.746 572.207 248.706C572.742 248.385 572.561 247.515 571.868 247.536Z" fill="#96431F"/>
<path d="M690.798 363.713C688.872 363.893 686.468 369.729 681.907 381.431C681.639 382.12 682.785 382.547 683.157 381.922C686.411 376.445 690.129 370.229 691.984 364.183C692.195 363.494 691.51 363.649 690.798 363.713Z" fill="#96431F"/>
<path d="M695.992 365.143C694.171 370.807 692.724 375.704 688.27 380.164C687.574 380.862 688.663 381.892 689.393 381.215C693.71 377.213 697.644 371.207 697.184 365.294C697.136 364.666 696.195 364.504 695.992 365.143Z" fill="#96431F"/>
</svg>
