<svg width="769" height="574" viewBox="0 0 769 574" fill="none" xmlns="http://www.w3.org/2000/svg">
<g clip-path="url(#clip0)">
<line y1="-0.5" x2="1013.92" y2="-0.5" transform="matrix(0.271993 -0.962299 0.711584 -0.702601 -106.939 493.659)" stroke="#CCCCCC"/>
<line y1="-0.5" x2="1013.92" y2="-0.5" transform="matrix(0.271993 -0.962299 0.711584 -0.702601 -64.5979 505.627)" stroke="#CCCCCC"/>
<line y1="-0.5" x2="1013.92" y2="-0.5" transform="matrix(0.271993 -0.962299 0.711584 -0.702601 -64.5979 505.627)" stroke="#CCCCCC"/>
<line y1="-0.5" x2="1013.92" y2="-0.5" transform="matrix(0.271993 -0.962299 0.711584 -0.702601 -27.0683 516.235)" stroke="#CCCCCC"/>
<line y1="-0.5" x2="1013.92" y2="-0.5" transform="matrix(0.271993 -0.962299 0.711584 -0.702601 5.02153 546.088)" stroke="#CCCCCC"/>
<line y1="-0.5" x2="1013.92" y2="-0.5" transform="matrix(0.271993 -0.962299 0.711584 -0.702601 47.3627 558.056)" stroke="#CCCCCC"/>
<line y1="-0.5" x2="1013.92" y2="-0.5" transform="matrix(0.271993 -0.962299 0.711584 -0.702601 47.3627 558.056)" stroke="#CCCCCC"/>
<line y1="-0.5" x2="1013.92" y2="-0.5" transform="matrix(0.271993 -0.962299 0.711584 -0.702601 84.8924 568.664)" stroke="#CCCCCC"/>
<line y1="-0.5" x2="1013.92" y2="-0.5" transform="matrix(0.271993 -0.962299 0.711584 -0.702601 125.142 569.649)" stroke="#CCCCCC"/>
<line y1="-0.5" x2="1013.92" y2="-0.5" transform="matrix(0.271993 -0.962299 0.711584 -0.702601 167.483 581.616)" stroke="#CCCCCC"/>
<line y1="-0.5" x2="1013.92" y2="-0.5" transform="matrix(0.271993 -0.962299 0.711584 -0.702601 167.483 581.616)" stroke="#CCCCCC"/>
<line y1="-0.5" x2="1013.92" y2="-0.5" transform="matrix(0.271993 -0.962299 0.711584 -0.702601 205.013 592.224)" stroke="#CCCCCC"/>
<line y1="-0.5" x2="1013.92" y2="-0.5" transform="matrix(0.271993 -0.962299 0.711584 -0.702601 237.103 622.078)" stroke="#CCCCCC"/>
<line y1="-0.5" x2="1013.92" y2="-0.5" transform="matrix(0.271993 -0.962299 0.711584 -0.702601 279.444 634.045)" stroke="#CCCCCC"/>
<line y1="-0.5" x2="1013.92" y2="-0.5" transform="matrix(0.271993 -0.962299 0.711584 -0.702601 279.444 634.045)" stroke="#CCCCCC"/>
<line y1="-0.5" x2="1013.92" y2="-0.5" transform="matrix(0.271993 -0.962299 0.711584 -0.702601 316.973 644.653)" stroke="#CCCCCC"/>
<line y1="-0.5" x2="1013.92" y2="-0.5" transform="matrix(0.271993 -0.962299 0.711584 -0.702601 352.327 662.959)" stroke="#CCCCCC"/>
<line y1="-0.5" x2="1013.92" y2="-0.5" transform="matrix(0.271993 -0.962299 0.711584 -0.702601 394.668 674.927)" stroke="#CCCCCC"/>
<line y1="-0.5" x2="1013.92" y2="-0.5" transform="matrix(0.271993 -0.962299 0.711584 -0.702601 394.668 674.927)" stroke="#CCCCCC"/>
<line y1="-0.5" x2="1013.92" y2="-0.5" transform="matrix(0.271993 -0.962299 0.711584 -0.702601 432.198 685.535)" stroke="#CCCCCC"/>
<line y1="-0.5" x2="1013.92" y2="-0.5" transform="matrix(0.271993 -0.962299 0.711584 -0.702601 464.288 715.388)" stroke="#CCCCCC"/>
<line y1="-0.5" x2="1013.92" y2="-0.5" transform="matrix(0.271993 -0.962299 0.711584 -0.702601 506.629 727.356)" stroke="#CCCCCC"/>
<line y1="-0.5" x2="1013.92" y2="-0.5" transform="matrix(0.271993 -0.962299 0.711584 -0.702601 506.629 727.356)" stroke="#CCCCCC"/>
<line y1="-0.5" x2="1013.92" y2="-0.5" transform="matrix(0.271993 -0.962299 0.711584 -0.702601 544.159 737.964)" stroke="#CCCCCC"/>
<line y1="-0.5" x2="1013.92" y2="-0.5" transform="matrix(0.271993 -0.962299 0.711584 -0.702601 582.651 748.844)" stroke="#CCCCCC"/>
<line y1="-0.5" x2="1013.92" y2="-0.5" transform="matrix(0.271993 -0.962299 0.711584 -0.702601 619 761.699)" stroke="#CCCCCC"/>
<line y1="-0.5" x2="1013.92" y2="-0.5" transform="matrix(0.271993 -0.962299 0.711584 -0.702601 654 771.699)" stroke="#CCCCCC"/>
<line y1="-0.5" x2="1013.92" y2="-0.5" transform="matrix(0.962299 0.271993 0.702601 0.711584 -34.8657 -256.837)" stroke="#CCCCCC"/>
<line y1="-0.5" x2="1013.92" y2="-0.5" transform="matrix(0.962299 0.271993 0.702601 0.711584 -64.3141 -224.375)" stroke="#CCCCCC"/>
<line y1="-0.5" x2="1013.92" y2="-0.5" transform="matrix(0.962299 0.271993 0.702601 0.711584 -75.7491 -181.887)" stroke="#CCCCCC"/>
<line y1="-0.5" x2="1013.92" y2="-0.5" transform="matrix(0.962299 0.271993 0.702601 0.711584 -75.7491 -181.887)" stroke="#CCCCCC"/>
<line y1="-0.5" x2="1013.92" y2="-0.5" transform="matrix(0.962299 0.271993 0.702601 0.711584 -85.8846 -144.227)" stroke="#CCCCCC"/>
<line y1="-0.5" x2="1013.92" y2="-0.5" transform="matrix(0.962299 0.271993 0.702601 0.711584 -86.3638 -103.968)" stroke="#CCCCCC"/>
<line y1="-0.5" x2="1013.92" y2="-0.5" transform="matrix(0.962299 0.271993 0.702601 0.711584 -97.7988 -61.48)" stroke="#CCCCCC"/>
<line y1="-0.5" x2="1013.92" y2="-0.5" transform="matrix(0.962299 0.271993 0.702601 0.711584 -97.7988 -61.48)" stroke="#CCCCCC"/>
<line y1="-0.5" x2="1013.92" y2="-0.5" transform="matrix(0.962299 0.271993 0.702601 0.711584 -107.934 -23.8201)" stroke="#CCCCCC"/>
<line y1="-0.5" x2="1013.92" y2="-0.5" transform="matrix(0.962299 0.271993 0.702601 0.711584 -137.383 8.64203)" stroke="#CCCCCC"/>
<line y1="-0.5" x2="1013.92" y2="-0.5" transform="matrix(0.962299 0.271993 0.702601 0.711584 -148.818 51.1302)" stroke="#CCCCCC"/>
<line y1="-0.5" x2="1013.92" y2="-0.5" transform="matrix(0.962299 0.271993 0.702601 0.711584 -148.818 51.1302)" stroke="#CCCCCC"/>
<line y1="-0.5" x2="1013.92" y2="-0.5" transform="matrix(0.962299 0.271993 0.702601 0.711584 -158.953 88.7901)" stroke="#CCCCCC"/>
<line y1="-0.5" x2="1013.92" y2="-0.5" transform="matrix(0.962299 0.271993 0.702601 0.711584 -176.814 124.371)" stroke="#CCCCCC"/>
<line y1="-0.5" x2="1013.92" y2="-0.5" transform="matrix(0.962299 0.271993 0.702601 0.711584 -188.249 166.859)" stroke="#CCCCCC"/>
<line y1="-0.5" x2="1013.92" y2="-0.5" transform="matrix(0.962299 0.271993 0.702601 0.711584 -188.249 166.859)" stroke="#CCCCCC"/>
<line y1="-0.5" x2="1013.92" y2="-0.5" transform="matrix(0.962299 0.271993 0.702601 0.711584 -198.385 204.519)" stroke="#CCCCCC"/>
<line y1="-0.5" x2="1013.92" y2="-0.5" transform="matrix(0.962299 0.271993 0.702601 0.711584 -227.833 236.981)" stroke="#CCCCCC"/>
<line y1="-0.5" x2="1013.92" y2="-0.5" transform="matrix(0.962299 0.271993 0.702601 0.711584 -239.268 279.469)" stroke="#CCCCCC"/>
<line y1="-0.5" x2="1013.92" y2="-0.5" transform="matrix(0.962299 0.271993 0.702601 0.711584 -239.268 279.469)" stroke="#CCCCCC"/>
<line y1="-0.5" x2="1013.92" y2="-0.5" transform="matrix(0.962299 0.271993 0.702601 0.711584 -249.404 317.129)" stroke="#CCCCCC"/>
<line y1="-0.5" x2="1013.92" y2="-0.5" transform="matrix(0.962299 0.271993 0.702601 0.711584 -260.924 354.61)" stroke="#CCCCCC"/>
<line y1="-0.5" x2="1013.92" y2="-0.5" transform="matrix(0.962299 0.271993 0.702601 0.711584 -271.06 392.27)" stroke="#CCCCCC"/>
</g>
<defs>
<clipPath id="clip0">
<rect width="769" height="574" rx="40" fill="white"/>
</clipPath>
</defs>
</svg>
