<svg width="998" height="656" viewBox="0 0 998 656" fill="none" xmlns="http://www.w3.org/2000/svg">
<path d="M225.753 568.152C225.753 536.335 201.618 510.541 171.846 510.541H161.681C147.385 510.541 133.672 504.472 123.563 493.668L96.614 464.868C86.504 454.064 72.7931 447.994 58.4954 447.994C33.9209 447.994 14 426.705 14 400.444V392.598C14 362.004 37.2072 337.203 65.8358 337.203H108.735C118.875 337.203 127.096 328.417 127.096 317.58C127.096 306.742 118.875 297.957 108.735 297.957H85.568C70.9307 297.957 59.0644 285.276 59.0644 269.633C59.0644 253.991 70.9307 241.309 85.568 241.309H263.418C275.923 241.309 286.062 230.476 286.062 217.11C286.062 203.745 275.923 192.911 263.418 192.911H241.327C216.105 192.911 195.658 171.061 195.658 144.105C195.658 117.151 216.105 95.2985 241.327 95.2985H303.6C332.112 95.2985 359.456 83.1959 379.617 61.6493C399.778 40.1043 427.122 28 455.633 28H500.246H614.467C638.464 28 661.478 38.187 678.448 56.3208C695.415 74.4547 718.429 84.6431 742.428 84.6431H909.109C926.204 84.6431 940.062 99.4527 940.062 117.722C940.062 135.99 926.204 150.8 909.109 150.8H863.91C842.738 150.8 825.575 169.14 825.575 191.766C825.575 214.393 842.738 232.734 863.91 232.734H918.715C945.982 232.734 968.088 256.356 968.088 285.496V285.498C968.088 314.636 945.982 338.26 918.715 338.26H831.874C811.432 338.26 794.862 355.969 794.862 377.815C794.862 399.66 811.432 417.369 831.874 417.369H876.91C901.32 417.369 921.108 438.517 921.108 464.604C921.108 490.69 901.32 511.838 876.91 511.838H813.573C780.499 511.838 748.78 525.879 725.392 550.873H725.391C702.005 575.868 670.286 589.908 637.21 589.908H615.198C598.958 589.908 583.383 596.803 571.9 609.075C560.276 621.495 544.469 628.402 528.033 628.237L279.158 625.76C249.583 625.464 225.753 599.76 225.753 568.152Z" fill="#333366" fill-opacity="0.78"/>
<path d="M280 547H580V252H280V547Z" fill="#FFD16B"/>
<path d="M403 343H456V251H403V343Z" fill="#069E7B"/>
<path d="M580 252H717V547H580V252Z" fill="#FFAA59"/>
</svg>
