<svg width="512" height="512" viewBox="0 0 512 512" fill="none" xmlns="http://www.w3.org/2000/svg">
<path d="M64 288L48 256H160L147.2 224H42.6667L26.6667 192H193.067L180.267 160H23.68L5.33334 128H85.3333C85.3333 116.684 89.8286 105.832 97.8301 97.8301C105.832 89.8286 116.684 85.3333 128 85.3333H384V170.667H448L512 256V362.667H469.333C469.333 379.64 462.59 395.919 450.588 407.921C438.586 419.924 422.307 426.667 405.333 426.667C388.359 426.667 372.081 419.924 360.078 407.921C348.076 395.919 341.333 379.64 341.333 362.667H256C256 379.64 249.257 395.919 237.255 407.921C225.253 419.924 208.974 426.667 192 426.667C175.026 426.667 158.747 419.924 146.745 407.921C134.743 395.919 128 379.64 128 362.667H85.3333V288H64ZM405.333 394.667C413.82 394.667 421.96 391.295 427.961 385.294C433.962 379.293 437.333 371.154 437.333 362.667C437.333 354.18 433.962 346.04 427.961 340.039C421.96 334.038 413.82 330.667 405.333 330.667C396.846 330.667 388.707 334.038 382.706 340.039C376.705 346.04 373.333 354.18 373.333 362.667C373.333 371.154 376.705 379.293 382.706 385.294C388.707 391.295 396.846 394.667 405.333 394.667ZM437.333 202.667H384V256H479.147L437.333 202.667ZM192 394.667C200.487 394.667 208.626 391.295 214.627 385.294C220.629 379.293 224 371.154 224 362.667C224 354.18 220.629 346.04 214.627 340.039C208.626 334.038 200.487 330.667 192 330.667C183.513 330.667 175.374 334.038 169.373 340.039C163.371 346.04 160 354.18 160 362.667C160 371.154 163.371 379.293 169.373 385.294C175.374 391.295 183.513 394.667 192 394.667Z" fill="#333366"/>
</svg>
